<?xml version="1.0" encoding="UTF-8" standalone="no"?>
<!-- Created with Inkscape (http://www.inkscape.org/) -->

<svg
   xmlns:dc="http://purl.org/dc/elements/1.1/"
   xmlns:cc="http://creativecommons.org/ns#"
   xmlns:rdf="http://www.w3.org/1999/02/22-rdf-syntax-ns#"
   xmlns:svg="http://www.w3.org/2000/svg"
   xmlns="http://www.w3.org/2000/svg"
   xmlns:sodipodi="http://sodipodi.sourceforge.net/DTD/sodipodi-0.dtd"
   xmlns:inkscape="http://www.inkscape.org/namespaces/inkscape"
   width="95.939781mm"
   height="44.078152mm"
   viewBox="0 0 95.939781 44.078152"
   version="1.1"
   id="svg4770"
   inkscape:version="0.92.4 (5da689c313, 2019-01-14)"
   sodipodi:docname="CFuSS.svg">
  <defs
     id="defs4764">
    <inkscape:perspective
       sodipodi:type="inkscape:persp3d"
       inkscape:vp_x="-89.92602 : 75.456892 : 0"
       inkscape:vp_y="6.4282638e-14 : 904.67123 : 0"
       inkscape:vp_z="102.0893 : 58.941286 : 0"
       inkscape:persp3d-origin="105.53577 : 99.82596 : 1"
       id="perspective5337" />
  </defs>
  <sodipodi:namedview
     id="base"
     pagecolor="#ffffff"
     bordercolor="#666666"
     borderopacity="1.0"
     inkscape:pageopacity="0.0"
     inkscape:pageshadow="2"
     inkscape:zoom="1"
     inkscape:cx="54.223035"
     inkscape:cy="15.345891"
     inkscape:document-units="mm"
     inkscape:current-layer="layer1"
     showgrid="false"
     showguides="true"
     inkscape:guide-bbox="true"
     inkscape:window-width="1920"
     inkscape:window-height="1051"
     inkscape:window-x="-9"
     inkscape:window-y="-9"
     inkscape:window-maximized="1" />
  <metadata
     id="metadata4767">
    <rdf:RDF>
      <cc:Work
         rdf:about="">
        <dc:format>image/svg+xml</dc:format>
        <dc:type
           rdf:resource="http://purl.org/dc/dcmitype/StillImage" />
        <dc:title></dc:title>
      </cc:Work>
    </rdf:RDF>
  </metadata>
  <g
     inkscape:label="Layer 1"
     inkscape:groupmode="layer"
     id="layer1"
     transform="translate(-26.358081,-116.06837)">
    <path
       style="opacity:1;fill:#283593;fill-opacity:1;stroke:none;stroke-width:0.99999994"
       d="m 172.32227,521.95117 -72.21485,41.69336 c 0.47541,0.80871 1.4155,1.35663 3.29102,2.43945 l 65.05078,37.55664 c 3.78124,2.1831 3.78273,2.18305 7.56055,0.002 l 65.05078,-37.55664 c 1.93817,-1.11901 2.87551,-1.66998 3.33593,-2.52344 z m -72.21485,41.69336 c -0.0146,-0.0249 -0.0253,-0.0527 -0.0391,-0.0781 0.0136,0.0251 0.0246,0.0535 0.0391,0.0781 z m -0.472654,-2.54687 c 0.01754,0.8016 0.06683,1.40613 0.201172,1.89062 -0.13457,-0.48349 -0.182879,-1.09109 -0.201172,-1.89062 z"
       transform="scale(0.26458333)"
       id="rect5317"
       inkscape:connector-curvature="0" />
    <path
       style="opacity:1;fill:#5c6bc0;fill-opacity:1;stroke:none;stroke-width:0.99999994"
       d="m 172.23242,438.68359 c -0.94491,-1.9e-4 -1.89038,0.54616 -3.7793,1.63672 l -65.05078,37.55664 c -3.781036,2.18298 -3.781246,2.18267 -3.781246,6.54493 v 75.11523 c 1.2e-4,2.1985 0.004,3.28708 0.486326,4.10742 L 244.375,480.34961 c -0.46957,-0.82626 -1.4128,-1.37391 -3.3125,-2.4707 l -65.05078,-37.55664 c -1.89052,-1.09149 -2.83439,-1.63848 -3.7793,-1.63868 z"
       id="rect4772"
       inkscape:connector-curvature="0"
       transform="scale(0.26458333)" />
    <path
       style="opacity:1;fill:#ffffff;fill-opacity:1;stroke:none;stroke-width:0.99999994"
       d="m 172.32227,465.14844 a 56.803407,56.803407 0 0 0 -56.80274,56.80273 56.803407,56.803407 0 0 0 56.80274,56.80274 56.803407,56.803407 0 0 0 56.80273,-56.80274 56.803407,56.803407 0 0 0 -56.80273,-56.80273 z m 0,25.98633 a 30.817234,30.817234 0 0 1 30.8164,30.8164 30.817234,30.817234 0 0 1 -30.8164,30.81641 30.817234,30.817234 0 0 1 -30.81641,-30.81641 30.817234,30.817234 0 0 1 30.81641,-30.8164 z"
       transform="scale(0.26458333)"
       id="path5501"
       inkscape:connector-curvature="0" />
    <path
       style="opacity:1;fill:#3949ab;fill-opacity:1;stroke:none;stroke-width:0.99999994"
       d="m 243.44531,479.37305 c 0.17277,0.13242 0.34858,0.26422 0.48047,0.39648 -0.13217,-0.13236 -0.30724,-0.26403 -0.48047,-0.39648 z m 0.92969,0.97656 -72.05273,41.60156 72.07421,41.61133 c 0.43787,-0.81135 0.44534,-1.89529 0.44532,-4.02148 v -75.11524 c -2e-5,-2.1705 -0.002,-3.25938 -0.4668,-4.07617 z m 0.0215,83.21289 c -0.0334,0.0619 -0.0747,0.11873 -0.11328,0.17773 0.0378,-0.0578 0.0806,-0.11713 0.11328,-0.17773 z m -0.44336,0.59766 c -0.1829,0.18915 -0.40284,0.3723 -0.66992,0.56445 0.26676,-0.1908 0.48703,-0.37636 0.66992,-0.56445 z m -0.66992,0.56445 c -0.26708,0.19215 -0.58159,0.39288 -0.94922,0.61523 0.36911,-0.22234 0.68094,-0.42334 0.94922,-0.61523 z m -0.94922,0.61523 c -0.36762,0.22235 -0.78889,0.46635 -1.27343,0.7461 0.48572,-0.28044 0.90448,-0.52385 1.27343,-0.7461 z"
       transform="scale(0.26458333)"
       id="rect5319"
       inkscape:connector-curvature="0" />
    <g
       id="g5547"
       transform="matrix(0.46922042,0,0,0.46922042,37.113122,73.252427)"
       style="stroke-width:2.13119459">
      <path
         inkscape:connector-curvature="0"
         id="rect3713"
         d="m 109.54189,106.09946 v 5.2e-4 H 85.544389 77.54436 l -1.999878,15.99954 h -0.0046 v 0.0367 l -5.9955,47.96346 h 8.000028 l 5.000212,-40.00013 H 106.53799 L 107.54,122.09952 H 83.544511 l 0.999939,-8.00003 h 23.9975 8.00003 l 0.99994,-8.00002 z m -2.00194,16.00005 -0.99994,8.00003 h 8.00003 l 0.99994,-8.00003 z"
         style="opacity:1;fill:#00d557;fill-opacity:1;stroke:none;stroke-width:0.56387854" />
      <path
         inkscape:connector-curvature="0"
         id="path4549"
         d="m 89.544662,138.09956 -4.000273,32.00011 h 8.000028 l 4.000272,-32.00011 z"
         style="opacity:1;fill:#00d557;fill-opacity:1;stroke:none;stroke-width:0.56387854" />
      <path
         inkscape:connector-curvature="0"
         id="path4590"
         d="m 105.54471,138.09957 -4.00027,32.00011 h 8.00003 l 4.00027,-32.00011 z"
         style="opacity:1;fill:#00d557;fill-opacity:1;stroke:none;stroke-width:0.56387854" />
      <path
         inkscape:connector-curvature="0"
         id="path4594"
         d="m 125.54505,106.09946 -4.00027,32.0001 -0.99994,8.00002 h 8.00003 8.00003 l -2.0004,16.00007 h -8.00003 -8.00002 l -0.99994,8.00002 h 8.00002 8.00003 8.00003 l 4.00027,-32.00011 h -8.00002 -8.00003 l 3.00033,-24.00008 h 8.00003 8.00003 l 0.99993,-8.00002 h -8.00002 -8.00003 z"
         style="opacity:1;fill:#00d557;fill-opacity:1;stroke:none;stroke-width:0.56387854" />
      <path
         inkscape:connector-curvature="0"
         id="path4634"
         d="m 86.544328,162.09965 -0.999939,8.00002 h 8.000028 8.000023 8.00003 l 0.99994,-8.00002 h -8.00003 -8.000024 z"
         style="opacity:1;fill:#00d557;fill-opacity:1;stroke:none;stroke-width:0.56387854" />
      <path
         inkscape:connector-curvature="0"
         id="path4672"
         d="m 157.54516,106.09946 -4.00027,32.0001 -0.99994,8.00002 h 8.00003 8.00003 l -2.0004,16.00007 h -8.00002 -8.00003 l -0.99994,8.00002 h 8.00003 8.00003 8.00002 l 4.00027,-32.00011 h -8.00003 -8.00002 l 3.00033,-24.00008 h 8.00003 8.00003 l 0.99994,-8.00002 h -8.00003 -8.00003 z"
         style="opacity:1;fill:#00d557;fill-opacity:1;stroke:none;stroke-width:0.56387854" />
    </g>
  </g>
</svg>
